<?xml version="1.0" encoding="utf-8"?>
<!-- Generator: Adobe Illustrator 16.0.4, SVG Export Plug-In . SVG Version: 6.00 Build 0)  -->
<!DOCTYPE svg PUBLIC "-//W3C//DTD SVG 1.1//EN" "http://www.w3.org/Graphics/SVG/1.1/DTD/svg11.dtd">
<svg version="1.1" id="Calque_1" xmlns="http://www.w3.org/2000/svg" xmlns:xlink="http://www.w3.org/1999/xlink" x="0px" y="0px"
	 width="200px" height="200px" viewBox="0 0 200 200" enable-background="new 0 0 200 200" xml:space="preserve">
<path fill="#8DC3E7" d="M48.022,27.749C19.267,38.381,4.569,70.316,15.201,99.076c10.632,28.755,90.093,83.564,90.093,83.564
	s24.683-93.318,14.051-122.07C108.713,31.81,76.77,17.117,48.022,27.749z M81.351,117.892c-21.026,7.776-44.376-2.972-52.145-23.994
	c-7.776-21.025,2.964-44.369,23.99-52.141c21.026-7.776,44.369,2.964,52.146,23.986C113.116,86.765,102.376,110.12,81.351,117.892z"
	/>
<path fill="#A9123D" d="M147.946,22.829c-18.023-4.773-36.301-0.062-49.643,10.998c4.211,2.833,8.022,6.282,11.355,10.228
	c9.57-7.094,22.058-10.082,34.469-6.794c21.664,5.732,34.583,27.943,28.855,49.612c-5.729,21.672-27.947,34.599-49.62,28.863
	c-21.672-5.732-34.591-27.955-28.855-49.616c1.04-3.938,2.779-7.464,4.812-10.763c-3.157-4.131-6.967-7.618-11.325-10.213
	c-3.495,5.101-6.244,10.833-7.915,17.153c-7.837,29.641,25.638,120.181,25.638,120.181s73.863-62.154,81.701-91.783
	C195.256,61.055,177.579,30.663,147.946,22.829z"/>
</svg>
